PathFileType	4	(X/Y/Z)	C:\Users\gl24\Desktop\Patient 1 Synergy Driven Model\NMS_Pipeline_Results_NewModel\Right\TRC Data (Extra Frame)\Patient3_NormalGait_1pt2_02_Right_25.trc.trc
DataRate	CameraRate	NumFrames	NumMarkers	Units	OrigDataRate	OrigDataStartFrame	OrigNumFrames
87.500000000000	87.500000000000	4	33	mm	87.500000000000	18	       142
Frame#	Time	L.Toe			R.Toe			L.Heel			Neck			R.Shoulder			L.Shank.Lateral			R.Shank.Lateral			R.Midfoot.Lateral			L.Shoulder			R.Midfoot.Superior			R.Elbow			L.Wrist			L.Elbow			R.Heel			R.Wrist			L.Midfoot.Superior			R.Thigh.Superior			Sternum			R.Shank.Superior			R.Shank.Inferior			L.Thigh.Superior			R.Patella			L.Midfoot.Lateral			L.Shank.Inferior			L.Patella			R.Thigh.Inferior			R.Thigh.Lateral			L.Thigh.Inferior			L.Thigh.Lateral			R.Asis			L.Asis			L.Shank.Superior			Sacral			
		X1	Y1	Z1	X2	Y2	Z2	X3	Y3	Z3	X4	Y4	Z4	X5	Y5	Z5	X6	Y6	Z6	X7	Y7	Z7	X8	Y8	Z8	X9	Y9	Z9	X10	Y10	Z10	X11	Y11	Z11	X12	Y12	Z12	X13	Y13	Z13	X14	Y14	Z14	X15	Y15	Z15	X16	Y16	Z16	X17	Y17	Z17	X18	Y18	Z18	X19	Y19	Z19	X20	Y20	Z20	X21	Y21	Z21	X22	Y22	Z22	X23	Y23	Z23	X24	Y24	Z24	X25	Y25	Z25	X26	Y26	Z26	X27	Y27	Z27	X28	Y28	Z28	X29	Y29	Z29	X30	Y30	Z30	X31	Y31	Z31	X32	Y32	Z32	X33	Y33	Z33	

18	28.514285714286	497.266045914618	36.987263829877	396.893576958033	1096.331874178082	161.888345697817	567.732483163396	218.805757271629	82.275193961806	452.349907880326	513.538274635132	1447.048575991209	460.725438176195	569.352436315499	1405.365847684111	627.297380047181	358.996917183728	356.936521908273	327.439866774642	758.342668678864	358.465041601702	640.229263204545	908.410876466220	65.263655076081	601.578109946323	592.973873838634	1422.869465655142	310.039656082005	967.196151709021	154.764503307685	559.978217208950	480.989329177967	1066.622217005082	708.463487736349	818.657817906036	946.104574373038	189.923511550275	600.804916485534	1089.208339977038	181.063581885278	827.838703128598	39.160877089297	538.010236691630	509.500211341403	815.292161163567	738.429786695489	394.285677750433	94.136486911192	407.326921091364	733.883274455505	732.946467561702	589.091381776118	671.483476722157	1358.096937072901	470.049438096680	819.618987996661	431.533211327440	592.846411989619	870.756879261433	261.264487623142	576.197907919825	639.763547850641	711.464459150490	336.068542996684	810.696288951601	533.104217646107	566.991794220372	289.482634583514	52.767993459951	385.321991300113	401.521226140127	241.570034737698	389.659231743801	538.492538642027	470.386158410125	374.599145377262	769.286488045146	629.317179332901	574.970212287482	674.003874359352	658.783123256384	651.147844016966	594.182043949809	588.381433951302	354.525193609124	525.839206043039	656.379844453385	296.886825958798	641.928004691818	963.031699698468	585.839959267385	644.943008292186	947.798519946434	326.035251373156	465.204898388884	383.613239977546	361.630186380733	467.555247701295	975.347650934466	460.728000369462	
19	28.525714285714	483.501722868875	36.892525692578	396.808929872891	1102.021725062689	168.948233609602	567.676544578253	206.578650137404	86.498403486718	451.573463022130	513.791187577824	1445.075356787422	461.683766977274	569.660521023827	1403.478425981191	628.291937640362	351.746755837663	358.941717846602	327.101705766289	759.593834793072	356.374744823956	639.680394676931	916.722487393097	65.906234117078	599.890520061026	593.335072995896	1420.933787791664	311.004850691205	973.027688963386	157.793332799722	559.450979502840	480.458640884299	1065.005646969044	709.483798513379	820.225300630702	945.836210564448	190.255917365040	601.304915121796	1087.311213858456	181.688709332062	837.044359751345	37.964500677703	535.786470748532	508.628555324220	813.643639097195	739.604581209154	382.205407101562	94.456932412607	406.385947101750	732.578982038376	730.537717432657	590.522393826401	671.843772717819	1356.200687650517	471.038526606800	820.351384374832	430.884830498646	593.922602773712	874.627500791534	261.627541727218	576.221501665196	637.603165982620	709.606475961808	336.111311486014	809.954995551933	532.730581176323	568.315755515941	276.711452922554	55.011632768004	384.864852160032	392.150658307505	242.530929282165	389.044330498874	533.299763769136	469.097574670994	374.564262677154	767.819298505270	627.198956264003	576.218594068066	672.635839369634	656.625785844009	652.672889296847	590.765347421148	586.918956345975	354.321371375641	523.166227311323	655.866870963859	296.899133884223	642.137129417915	961.023307956480	587.190429164149	645.131124311639	945.878709445369	327.167065956090	458.418808754589	383.526723382515	361.511833089809	468.013016148181	973.156438561768	462.595000833684	
20	28.537142857143	469.782629161574	36.826862026271	396.737417904572	1104.240170532055	172.368606893427	567.287880121265	194.615875387015	91.106321539799	450.706815424718	514.078917785782	1443.121291628522	462.722494037724	569.964779569236	1401.640209268702	629.377994534955	345.150951955601	360.996880309663	326.762071152156	760.594185701712	354.513755626938	638.848759266102	920.520646020964	65.544093843026	597.988717224909	593.741650315926	1419.017226819183	312.061603569293	975.445700103993	158.851241603131	558.485729491502	480.380063605371	1063.306692081170	710.623645018385	821.390698780129	945.046290865563	190.627264670890	601.764158965639	1085.402665710806	182.459168237491	841.542509548731	36.772579802147	533.351063046441	508.561260765613	811.962388204957	740.929286639174	370.382300419021	94.748184151550	405.401357605161	732.279840261149	729.087828965197	592.029110008113	672.273438394789	1354.388655502003	472.140626111282	821.448615040855	429.699508788801	594.441178490064	876.642987972842	261.002173212552	575.690473211383	635.956206496499	707.785031530223	336.196611833539	810.421729999422	532.460132643081	569.721931742232	264.106291382988	57.486346217854	384.357065579655	383.257562486534	243.536977388064	388.395063025495	528.889274872621	467.749780044029	374.462528744835	767.753090197047	626.104788357801	577.455585630795	672.676342369042	655.023015557476	654.100914394450	588.049150529445	585.435511756175	354.022485162075	521.026757370085	655.300631365411	297.098257568706	642.537608697049	959.115253448416	588.699909932231	645.667752225151	943.971660119979	328.460997191788	452.274431807250	383.368404944486	361.399974699532	468.776747470232	971.006275031705	464.489925115647	
21	28.548571428571	456.122173427312	36.804692334503	396.680942216784	1103.440359440561	171.929217319288	566.527503898795	182.969795601084	96.134615428406	449.776235088838	514.390020759878	1441.202929052345	463.847963054934	570.250536843891	1399.882032148005	630.565753682994	339.254079350594	363.092087020748	326.453992304017	761.443587946811	352.793076427921	637.833492368789	920.118858025124	64.087094449630	596.014061317964	594.192273879760	1417.144663167867	313.223444771047	974.826493673437	157.801346508385	557.101780665092	480.761038733903	1061.550503428602	711.879006495960	822.147650196039	943.746138747458	191.041588918565	602.178645472842	1083.517092694885	183.377932029540	841.578015608253	35.509814553475	530.904926067519	509.306472984610	810.274870440642	742.389235260668	358.845919888192	94.989731514019	404.397888834968	733.096399649777	728.448150973930	593.634760415188	672.767940830271	1352.698829031943	473.373097179109	822.861722574081	427.950064189832	594.311223743202	876.986353054627	259.323812139786	574.595014463539	634.839129882816	706.008251598656	336.350515401861	811.889557635416	532.122018976491	571.025331180839	251.690195800196	60.226871438289	383.814812694180	374.887771094848	244.580918794630	387.718706689289	525.345288875731	466.282712561380	374.276658358320	769.045958569073	625.806935767498	578.661849137689	673.998366822085	653.858099313483	655.269482412767	586.052275633359	583.938908559887	353.669645082207	519.438693637898	654.660547016063	297.501626215515	643.227128573747	957.345840139399	590.338891613539	646.571979090514	942.088469141476	329.902491693403	446.823570366134	383.115942687359	361.283806635198	469.868814015276	968.951170827618	466.365899056121	
